<?xml version="1.0" encoding="utf-8"?>
<svg aria-label="Globe" viewBox="0 0 24.785 24.767" class="StyledIcon-sc-ofa7kd-0 gfrdwT" xmlns="http://www.w3.org/2000/svg">
  <rect style="fill: rgb(0, 115, 157);" width="24.773" height="24.747" rx="12.3" ry="12.3"/>
  <path fill="none" stroke="#fff" stroke-width="2" d="M 2.359 8.354 C 2.359 8.354 5.859 9.354 7.359 10.354 C 8.859 11.354 7.923 12.774 8.359 13.354 C 8.795 13.934 10.359 12.354 10.359 15.354 C 10.359 18.354 13.359 16.354 13.359 19.354 C 13.359 22.354 15.859 21.854 16.359 20.354 C 16.859 18.854 18.592 17.22 18.359 15.354 C 18.126 13.488 17.359 12.354 15.359 12.354 C 13.359 12.354 11.859 11.854 11.359 10.354 C 10.859 8.854 14.359 8.354 13.359 5.354 C 12.359 2.354 13.359 1.354 13.359 1.354 M 23.359 12.354 C 23.359 18.429 18.434 23.354 12.359 23.354 C 6.284 23.354 1.359 18.429 1.359 12.354 C 1.359 6.279 6.284 1.354 12.359 1.354 C 18.434 1.354 23.359 6.279 23.359 12.354 Z"/>
</svg>